<svg width="20" height="20" viewBox="0 0 20 20" fill="none" xmlns="http://www.w3.org/2000/svg">
<path d="M14.1667 2.49998H17.5C17.721 2.49998 17.933 2.58778 18.0893 2.74406C18.2456 2.90034 18.3334 3.1123 18.3334 3.33331V16.6666C18.3334 16.8877 18.2456 17.0996 18.0893 17.2559C17.933 17.4122 17.721 17.5 17.5 17.5H2.50002C2.27901 17.5 2.06704 17.4122 1.91076 17.2559C1.75448 17.0996 1.66669 16.8877 1.66669 16.6666V3.33331C1.66669 3.1123 1.75448 2.90034 1.91076 2.74406C2.06704 2.58778 2.27901 2.49998 2.50002 2.49998H5.83335V0.833313H7.50002V2.49998H12.5V0.833313H14.1667V2.49998ZM16.6667 9.16665H3.33335V15.8333H16.6667V9.16665ZM12.5 4.16665H7.50002V5.83331H5.83335V4.16665H3.33335V7.49998H16.6667V4.16665H14.1667V5.83331H12.5V4.16665ZM5.00002 10.8333H6.66669V12.5H5.00002V10.8333ZM9.16669 10.8333H10.8334V12.5H9.16669V10.8333ZM13.3334 10.8333H15V12.5H13.3334V10.8333Z" fill="#28B8EA"/>
</svg>
