<svg width="800" height="800" xmlns="http://www.w3.org/2000/svg" xmlns:xlink="http://www.w3.org/1999/xlink" xmlns:svgjs="http://svgjs.com/svgjs" viewBox="0 1 951 885"><svg width="672" height="792" xmlns="http://www.w3.org/2000/svg" xmlns:xlink="http://www.w3.org/1999/xlink" xmlns:svgjs="http://svgjs.com/svgjs" viewBox="0 0.165 672 791.67" fill="none" stroke-dasharray="[object Object] [object Object]" stroke-miterlimit="100" stroke="#e1e4e6" x="1" y="1"><svg xmlns="http://www.w3.org/2000/svg" xmlns:xlink="http://www.w3.org/1999/xlink" width="672" height="792" viewBox="262 51 671.92 791.576"><path paint-order="stroke fill markers" d="M319.827 51s129.84 194.349 332.775 179.417c202.936-14.933 303.615 85.857 277.16 235.28-26.454 149.423-141.643 296.987-368.01 365.33C335.385 899.37 280.358 644.963 262 576.33V441.09 266.674 108.353C262 103.85 319.827 51 319.827 51z"/></svg></svg><svg width="896" height="817" xmlns="http://www.w3.org/2000/svg" xmlns:xlink="http://www.w3.org/1999/xlink" xmlns:svgjs="http://svgjs.com/svgjs" viewBox="26.511 0 842.978 817" fill="none" stroke-miterlimit="100" stroke="#e1e4e6" y="1"><svg xmlns="http://www.w3.org/2000/svg" xmlns:xlink="http://www.w3.org/1999/xlink" width="896" height="817" viewBox="228 174 842.604 816.637"><path paint-order="stroke fill markers" d="M653.313 174s-71.425 105.41 162.023 167.515c233.448 62.104 307.222 214.288 219.485 371.625-87.737 157.338-244.292 288.111-524.778 276.816-280.485-11.295-243.357-318.06-259.902-410.02C233.597 487.98 228 422.435 228 381.687V174h425.313z"/></svg></svg><svg width="951" height="885" xmlns="http://www.w3.org/2000/svg" xmlns:xlink="http://www.w3.org/1999/xlink" xmlns:svgjs="http://svgjs.com/svgjs" viewBox="18.13 0 914.739 885" fill="none" stroke-miterlimit="100" stroke="#e1e4e6" y="1"><svg xmlns="http://www.w3.org/2000/svg" width="951" height="885" viewBox="178 130 914.597 884.862"><path paint-order="stroke fill markers" d="M514.279 130s19.093 173.676 260.66 173.244c241.566-.433 352.215 127.47 308.19 302.155-44.026 174.685-192.966 339.626-466.817 401.311-273.852 61.685-317.386-244.237-357.167-328.78C219.364 593.387 178 537.412 178 507.61V290.87 130h336.279z"/></svg></svg></svg>