<svg width="919" height="955" xmlns="http://www.w3.org/2000/svg" xmlns:xlink="http://www.w3.org/1999/xlink" xmlns:svgjs="http://svgjs.com/svgjs" viewBox="0 1811 919 955"><svg width="918" height="864" xmlns="http://www.w3.org/2000/svg" xmlns:xlink="http://www.w3.org/1999/xlink" xmlns:svgjs="http://svgjs.com/svgjs" viewBox="23.448 0 871.104 864" fill="none" stroke-miterlimit="100" stroke="#e1e4e6" x="1" y="1811"><svg xmlns="http://www.w3.org/2000/svg" xmlns:xlink="http://www.w3.org/1999/xlink" width="918" height="864" viewBox="298 1.542 870.181 863.085"><path paint-order="stroke fill markers" fill-rule="evenodd" d="M298 306.737s183.26 93.853 303.669-115.566C722.078-18.248 888.17-50.12 1017.439 75.348c129.268 125.47 197.642 336.926 114.136 604.932-83.505 268.004-370.208 152.745-463.315 144.925-93.107-7.82-163.754 2.592-212.674 27.72-48.92 25.13-157.586 1.967-157.586 1.967V628.33 306.737z"/></svg></svg><svg width="853" height="833" xmlns="http://www.w3.org/2000/svg" xmlns:xlink="http://www.w3.org/1999/xlink" xmlns:svgjs="http://svgjs.com/svgjs" viewBox="23.405 0 806.191 833" fill="none" stroke-miterlimit="100" stroke="#e1e4e6" x="1" y="1881"><svg xmlns="http://www.w3.org/2000/svg" xmlns:xlink="http://www.w3.org/1999/xlink" width="853" height="833" viewBox="385 1.307 805.12 831.894"><path paint-order="stroke fill markers" fill-rule="evenodd" d="M385 120.436s123.399 176.307 293.906 5.187c170.508-171.12 339.19-158.918 431.58-4.267 92.39 154.651 127.365 355.618-22.66 592.878-150.024 237.26-397.127 51.724-485.037 20.073-87.91-31.652-158.845-39.878-212.602-28.267C385 717.65 385 674.473 385 674.473V403.764 120.436z"/></svg></svg><svg width="701" height="759" xmlns="http://www.w3.org/2000/svg" xmlns:xlink="http://www.w3.org/1999/xlink" xmlns:svgjs="http://svgjs.com/svgjs" viewBox="0.34 0 700.32 759" fill="none" stroke-dasharray="[object Object] [object Object]" stroke-miterlimit="100" stroke="#e1e4e6" y="2007"><svg xmlns="http://www.w3.org/2000/svg" width="701" height="759" viewBox="175 1.949 699.072 757.648"><path paint-order="stroke fill markers" fill-rule="evenodd" d="M175 350.889s117.31 9.274 205.847-173.939C469.382-6.263 607.009-43.06 723.186 54.562c116.176 97.622 186.376 271.161 132.38 501.372-53.997 230.21-301.833 150.662-380.532 149.707-78.698-.955-137.427 12.054-177.014 36.118C258.433 765.82 175 758.572 175 758.572v-167.98-239.703z"/></svg></svg></svg>