<svg width="25" height="25" viewBox="0 0 25 25" fill="none" xmlns="http://www.w3.org/2000/svg">
<path d="M2.0835 9.36876C2.08295 8.54814 2.24428 7.73547 2.55825 6.97729C2.87223 6.2191 3.33268 5.5303 3.91324 4.95032C4.49379 4.37035 5.18305 3.91059 5.94155 3.59737C6.70005 3.28416 7.51288 3.12364 8.3335 3.12501H16.6668C20.1179 3.12501 22.9168 5.9323 22.9168 9.36876V21.875H8.3335C4.88246 21.875 2.0835 19.0677 2.0835 15.6313V9.36876ZM20.8335 19.7917V9.36876C20.8307 8.26511 20.3907 7.20755 19.6097 6.42774C18.8287 5.64792 17.7705 5.20944 16.6668 5.20834H8.3335C7.78646 5.20697 7.24454 5.3136 6.73881 5.52212C6.23307 5.73064 5.77347 6.03694 5.38637 6.42346C4.99927 6.80998 4.69228 7.26912 4.483 7.77454C4.27373 8.27996 4.16628 8.82172 4.16683 9.36876V15.6313C4.16959 16.7349 4.60966 17.7925 5.39064 18.5723C6.17162 19.3521 7.22985 19.7906 8.3335 19.7917H20.8335ZM14.5835 11.4583H16.6668V13.5417H14.5835V11.4583ZM8.3335 11.4583H10.4168V13.5417H8.3335V11.4583Z" fill="#28B8EA"/>
</svg>
