<svg width="21" height="19" viewBox="0 0 21 19" fill="none" xmlns="http://www.w3.org/2000/svg">
<path d="M0.0833296 6.36876C0.0827805 5.54814 0.244112 4.73547 0.558087 3.97729C0.872061 3.2191 1.33251 2.5303 1.91307 1.95032C2.49362 1.37035 3.18289 0.910588 3.94138 0.597373C4.69988 0.284157 5.51271 0.123639 6.33333 0.125009H14.6667C18.1177 0.125009 20.9167 2.9323 20.9167 6.36876V18.875H6.33333C2.88229 18.875 0.0833296 16.0677 0.0833296 12.6313V6.36876ZM18.8333 16.7917V6.36876C18.8306 5.26511 18.3905 4.20755 17.6095 3.42774C16.8285 2.64792 15.7703 2.20944 14.6667 2.20834H6.33333C5.7863 2.20697 5.24437 2.3136 4.73864 2.52212C4.2329 2.73064 3.77331 3.03694 3.3862 3.42346C2.9991 3.80998 2.69211 4.26912 2.48283 4.77454C2.27356 5.27996 2.16611 5.82172 2.16666 6.36876V12.6313C2.16942 13.7349 2.60949 14.7925 3.39047 15.5723C4.17146 16.3521 5.22968 16.7906 6.33333 16.7917H18.8333ZM12.5833 8.45834H14.6667V10.5417H12.5833V8.45834ZM6.33333 8.45834H8.41666V10.5417H6.33333V8.45834Z" fill="#929299"/>
</svg>
