<svg width="25" height="25" viewBox="0 0 25 25" fill="none" xmlns="http://www.w3.org/2000/svg">
<path d="M20.8334 22.9167H18.7501V20.8333C18.7501 20.0045 18.4208 19.2097 17.8348 18.6236C17.2487 18.0376 16.4539 17.7083 15.6251 17.7083H9.37508C8.54628 17.7083 7.75142 18.0376 7.16537 18.6236C6.57932 19.2097 6.25008 20.0045 6.25008 20.8333V22.9167H4.16675V20.8333C4.16675 19.452 4.71548 18.1272 5.69223 17.1505C6.66899 16.1737 7.99374 15.625 9.37508 15.625H15.6251C17.0064 15.625 18.3312 16.1737 19.3079 17.1505C20.2847 18.1272 20.8334 19.452 20.8334 20.8333V22.9167ZM12.5001 13.5417C11.6793 13.5417 10.8666 13.38 10.1083 13.0659C9.35002 12.7518 8.66103 12.2914 8.08066 11.7111C7.5003 11.1307 7.03993 10.4417 6.72583 9.68343C6.41174 8.92514 6.25008 8.11242 6.25008 7.29166C6.25008 6.4709 6.41174 5.65817 6.72583 4.89989C7.03993 4.1416 7.5003 3.45261 8.08066 2.87224C8.66103 2.29187 9.35002 1.8315 10.1083 1.51741C10.8666 1.20332 11.6793 1.04166 12.5001 1.04166C14.1577 1.04166 15.7474 1.70014 16.9195 2.87224C18.0916 4.04434 18.7501 5.63405 18.7501 7.29166C18.7501 8.94926 18.0916 10.539 16.9195 11.7111C15.7474 12.8832 14.1577 13.5417 12.5001 13.5417ZM12.5001 11.4583C13.6051 11.4583 14.665 11.0193 15.4464 10.2379C16.2278 9.45653 16.6667 8.39673 16.6667 7.29166C16.6667 6.18659 16.2278 5.12678 15.4464 4.34538C14.665 3.56398 13.6051 3.12499 12.5001 3.12499C11.395 3.12499 10.3352 3.56398 9.5538 4.34538C8.7724 5.12678 8.33341 6.18659 8.33341 7.29166C8.33341 8.39673 8.7724 9.45653 9.5538 10.2379C10.3352 11.0193 11.395 11.4583 12.5001 11.4583Z" fill="#28B8EA"/>
</svg>
