<svg width="23" height="19" viewBox="0 0 23 19" fill="none" xmlns="http://www.w3.org/2000/svg">
<path d="M20.8748 16.7917H22.9582V18.875H0.0415039V16.7917H2.12484V1.16667C2.12484 0.890399 2.23458 0.625447 2.42993 0.430097C2.62528 0.234747 2.89024 0.125 3.1665 0.125H13.5832C13.8594 0.125 14.1244 0.234747 14.3197 0.430097C14.5151 0.625447 14.6248 0.890399 14.6248 1.16667V16.7917H18.7915V8.45833H16.7082V6.375H19.8332C20.1094 6.375 20.3744 6.48475 20.5697 6.6801C20.7651 6.87545 20.8748 7.1404 20.8748 7.41667V16.7917ZM4.20817 2.20833V16.7917H12.5415V2.20833H4.20817ZM6.2915 8.45833H10.4582V10.5417H6.2915V8.45833ZM6.2915 4.29167H10.4582V6.375H6.2915V4.29167Z" fill="#929299"/>
</svg>
