<svg width="25" height="25" viewBox="0 0 25 25" fill="none" xmlns="http://www.w3.org/2000/svg">
<path d="M21.875 19.7917H23.9583V21.875H1.04167V19.7917H3.125V4.16667C3.125 3.8904 3.23475 3.62545 3.4301 3.4301C3.62545 3.23475 3.8904 3.125 4.16667 3.125H14.5833C14.8596 3.125 15.1246 3.23475 15.3199 3.4301C15.5153 3.62545 15.625 3.8904 15.625 4.16667V19.7917H19.7917V11.4583H17.7083V9.375H20.8333C21.1096 9.375 21.3746 9.48475 21.5699 9.6801C21.7653 9.87545 21.875 10.1404 21.875 10.4167V19.7917ZM5.20833 5.20833V19.7917H13.5417V5.20833H5.20833ZM7.29167 11.4583H11.4583V13.5417H7.29167V11.4583ZM7.29167 7.29167H11.4583V9.375H7.29167V7.29167Z" fill="#28B8EA"/>
</svg>
