<svg width="20" height="20" viewBox="0 0 20 20" fill="none" xmlns="http://www.w3.org/2000/svg">
<path d="M9.1665 1.66675C13.3065 1.66675 16.6665 5.02675 16.6665 9.16675C16.6665 13.3067 13.3065 16.6667 9.1665 16.6667C5.0265 16.6667 1.6665 13.3067 1.6665 9.16675C1.6665 5.02675 5.0265 1.66675 9.1665 1.66675ZM9.1665 15.0001C12.389 15.0001 14.9998 12.3892 14.9998 9.16675C14.9998 5.94341 12.389 3.33341 9.1665 3.33341C5.94317 3.33341 3.33317 5.94341 3.33317 9.16675C3.33317 12.3892 5.94317 15.0001 9.1665 15.0001ZM16.2373 15.0592L18.5948 17.4159L17.4157 18.5951L15.059 16.2376L16.2373 15.0592Z" fill="#929299"/>
</svg>
